# xmcd CD database file
#
# Track frame offsets:
#	150
#	18332
#	36833
#	55787
#	70795
#	85580
#	100194
#	118903
#	135553
#	149853
#	162673
#	180350
#	195418
#
# Disc length: 2827 seconds
#
# Revision: 0
# Processed by: cddbd v1.5.1PL0 Copyright (c) Steve Scherf et al.
# Submitted via: CDex 1.50
#
DISCID=b10b090d
DTITLE=Tonny and Kleber - Aventureiro
DYEAR=2004
DGENRE=Country
TTITLE0=O Azul do Céu
TTITLE1=O Que Me Atrai Em Você
TTITLE2=Desculpa
TTITLE3=Sábado De Festa
TTITLE4=Uma Noite
TTITLE5=Mais Uma Dose
TTITLE6=100%
TTITLE7=Aventureiro
TTITLE8=Mulher Bandida
TTITLE9=Gostosa
TTITLE10=Recordações
TTITLE11=Ranchinho
TTITLE12=Último Adeus
EXTD=YEAR: 2004
EXTT0=
EXTT1=
EXTT2=
EXTT3=
EXTT4=
EXTT5=
EXTT6=
EXTT7=
EXTT8=
EXTT9=
EXTT10=
EXTT11=
EXTT12=
PLAYORDER=
